<?xml version="1.0" standalone="no"?><!DOCTYPE svg PUBLIC "-//W3C//DTD SVG 1.1//EN" "http://www.w3.org/Graphics/SVG/1.1/DTD/svg11.dtd"><svg t="1553669534913" class="icon" style="" viewBox="0 0 1181 1024" version="1.1" xmlns="http://www.w3.org/2000/svg" p-id="1136" xmlns:xlink="http://www.w3.org/1999/xlink" width="55.359375" height="48"><defs><style type="text/css"></style></defs><path d="M512 949.794133C270.199467 949.794133 74.205867 753.800533 74.205867 512 74.205867 270.199467 270.199467 74.205867 512 74.205867c241.800533 0 437.794133 195.9936 437.794133 437.794133 0 241.800533-195.9936 437.794133-437.794133 437.794133M512 0C229.239467 0 0 229.239467 0 512c0 282.760533 229.239467 512 512 512 282.760533 0 512-229.239467 512-512 0-282.760533-229.239467-512-512-512" fill="#ffe11c" p-id="1137"></path><path d="M307.131733 315.392a77.9264 77.9264 0 1 1 0 155.784533 77.9264 77.9264 0 0 1 0-155.818666M716.868267 471.176533a77.9264 77.9264 0 1 1 0-155.818666 77.9264 77.9264 0 0 1 0 155.818666M647.202133 712.772267H376.832a35.566933 35.566933 0 0 1-35.498667-35.464534c0-19.490133 16.008533-35.464533 35.498667-35.464533h270.404267c19.524267 0 35.464533 15.9744 35.464533 35.498667 0 19.456-15.940267 35.4304-35.464533 35.4304" fill="#ffe11c" p-id="1138"></path></svg>