<?xml version="1.0" standalone="no"?><!DOCTYPE svg PUBLIC "-//W3C//DTD SVG 1.1//EN" "http://www.w3.org/Graphics/SVG/1.1/DTD/svg11.dtd"><svg t="1553668855053" class="icon" style="" viewBox="0 0 1024 1024" version="1.1" xmlns="http://www.w3.org/2000/svg" p-id="3561" xmlns:xlink="http://www.w3.org/1999/xlink" width="64" height="64"><defs><style type="text/css"></style></defs><path d="M511.928422 1024C229.623375 1024 0 794.376625 0 512.071578S229.623375 0 511.928422 0s511.928422 229.766532 511.928422 512.071578C1024 794.376625 794.233468 1024 511.928422 1024L511.928422 1024zM511.928422 73.296239c-241.934853 0-438.632182 196.840487-438.632182 438.775339s196.840487 438.632182 438.632182 438.632182S950.560604 754.006431 950.560604 512.071578C950.703761 270.136726 753.863274 73.296239 511.928422 73.296239L511.928422 73.296239z" p-id="3562" fill="#ef651f"></path><path d="M299.197539 389.672585c0 15.747239 6.442052 31.351321 17.608276 42.374388 11.166224 11.166224 26.627149 17.608276 42.374388 17.608276s31.351321-6.442052 42.374388-17.608276c11.166224-11.166224 17.608276-26.627149 17.608276-42.374388s-6.442052-31.351321-17.608276-42.374388-26.770306-17.608276-42.374388-17.608276c-15.747239 0-31.351321 6.442052-42.374388 17.608276C305.639592 358.464421 299.197539 374.068503 299.197539 389.672585L299.197539 389.672585z" p-id="3563" fill="#ef651f"></path><path d="M618.007549 389.672585c0 15.747239 6.442052 31.351321 17.608276 42.374388 11.166224 11.166224 26.770306 17.608276 42.374388 17.608276 15.747239 0 31.351321-6.442052 42.374388-17.608276 11.166224-11.166224 17.608276-26.627149 17.608276-42.374388s-6.442052-31.351321-17.608276-42.374388-26.627149-17.608276-42.374388-17.608276-31.351321 6.442052-42.374388 17.608276C624.449602 358.464421 618.007549 374.068503 618.007549 389.672585L618.007549 389.672585z" p-id="3564" fill="#ef651f"></path><path d="M736.254998 448.080526c0 0-55.83112 93.33818 2.147351 93.33818S736.254998 448.080526 736.254998 448.080526zM738.402349 533.974556c-43.519642 0-1.574724-70.003635-1.574724-70.003635S781.921991 533.974556 738.402349 533.974556z" p-id="3565" fill="#ef651f"></path><path d="M779.631483 557.738571c0 0-37.650217 63.132112 1.431567 63.132112C820.287991 620.870684 779.631483 557.738571 779.631483 557.738571zM780.919894 615.860199c-29.347127 0-1.145254-47.384873-1.145254-47.384873S810.410178 615.860199 780.919894 615.860199z" p-id="3566" fill="#ef651f"></path><path d="M693.594296 756.583252l54.113239-49.389068c-73.725709-79.165665-152.891374-118.676919-235.06333-115.098001-104.361247 3.435761-184.242695 73.009926-222.895009 114.668531l55.258493 48.386971c31.208164-33.069202 93.910807-87.468754 170.49965-89.759262C574.487907 664.247169 635.186355 694.31008 693.594296 756.583252z" p-id="3567" fill="#ef651f"></path></svg>