<?xml version="1.0" standalone="no"?><!DOCTYPE svg PUBLIC "-//W3C//DTD SVG 1.1//EN" "http://www.w3.org/Graphics/SVG/1.1/DTD/svg11.dtd"><svg t="1553668946584" class="icon" style="" viewBox="0 0 1024 1024" version="1.1" xmlns="http://www.w3.org/2000/svg" p-id="4681" xmlns:xlink="http://www.w3.org/1999/xlink" width="64" height="64"><defs><style type="text/css"></style></defs><path d="M511.999 1021.034c-280.688 0-509.047-228.348-509.047-509.019 0-280.689 228.361-509.036 509.047-509.036 280.684 0 509.034 228.348 509.034 509.036 0 280.671-228.349 509.019-509.034 509.019zM511.999 85.060c-235.427 0-426.968 191.529-426.968 426.957 0 235.412 191.541 426.939 426.968 426.939 235.428 0 426.955-191.528 426.955-426.939-0.001-235.43-191.528-426.957-426.955-426.957z" p-id="4682" fill="#6bcb8b"></path><path d="M412.246 419.074c0 51.324-31.885 92.927-71.258 92.927-39.357 0-71.244-41.603-71.244-92.927 0-51.325 31.886-92.925 71.244-92.925 39.37 0.001 71.258 41.6 71.258 92.925z" p-id="4683" fill="#6bcb8b"></path><path d="M754.238 419.074c0 51.324-31.886 92.927-71.256 92.927-39.357 0-71.243-41.603-71.243-92.927 0-51.325 31.885-92.925 71.243-92.925 39.369 0.001 71.256 41.6 71.256 92.925z" p-id="4684" fill="#6bcb8b"></path><path d="M511.999 830.853c-122.302 0-232.221-72.877-280.031-185.649l75.56-32.037c34.933 82.371 115.194 135.607 204.473 135.607s169.527-53.237 204.462-135.607l75.56 32.037c-47.813 112.776-157.729 185.649-280.020 185.649z" p-id="4685" fill="#6bcb8b"></path></svg>